<svg width="100" height="100" viewBox="0 0 100 100" fill="none" xmlns="http://www.w3.org/2000/svg">
<circle cx="50" cy="50" r="50" fill="white"/>
<path fill-rule="evenodd" clip-rule="evenodd" d="M48.1705 14.002C29.8365 14.8824 15.0993 29.4809 14 47.7568H18.3238C19.5359 47.7568 20.5184 48.7393 20.5184 49.9514C20.5184 51.1634 19.5359 52.146 18.3238 52.146H14C15.0992 70.4219 29.8364 85.0206 48.1705 85.901V81.9926C48.1705 80.7806 49.1531 79.798 50.3651 79.798C51.5772 79.798 52.5597 80.7806 52.5597 81.9926V85.8481C70.484 84.5517 84.7699 70.129 85.8515 52.146H82.4064C81.1943 52.146 80.2118 51.1634 80.2118 49.9514C80.2118 48.7393 81.1943 47.7568 82.4064 47.7568H85.8515C84.7698 29.7738 70.484 15.3512 52.5597 14.0548V17.9101C52.5597 19.1221 51.5772 20.1047 50.3651 20.1047C49.1531 20.1047 48.1705 19.1221 48.1705 17.9101V14.002Z" fill="#1A976A"/>
<path d="M55.0196 54.3916L45.6079 44.9801L66 34L55.0196 54.3916Z" fill="#FBAE3B"/>
<path d="M54.3921 55.0199L44.9804 45.6084L34 66L54.3921 55.0199Z" fill="#FBAE3B"/>
</svg>
